<?xml version="1.0" encoding="UTF-8" standalone="no"?>
<!-- Created with Inkscape (http://www.inkscape.org/) -->

<svg
   width="97.734276mm"
   height="89.002258mm"
   viewBox="0 0 97.734276 89.002258"
   version="1.1"
   id="svg1"
   xml:space="preserve"
   inkscape:version="1.3.2 (091e20e, 2023-11-25, custom)"
   sodipodi:docname="voleibest.svg"
   xmlns:inkscape="http://www.inkscape.org/namespaces/inkscape"
   xmlns:sodipodi="http://sodipodi.sourceforge.net/DTD/sodipodi-0.dtd"
   xmlns="http://www.w3.org/2000/svg"
   xmlns:svg="http://www.w3.org/2000/svg"><sodipodi:namedview
     id="namedview1"
     pagecolor="#505050"
     bordercolor="#eeeeee"
     borderopacity="1"
     inkscape:showpageshadow="0"
     inkscape:pageopacity="0"
     inkscape:pagecheckerboard="0"
     inkscape:deskcolor="#505050"
     inkscape:document-units="mm"
     inkscape:zoom="0.5"
     inkscape:cx="-3410"
     inkscape:cy="2841"
     inkscape:window-width="1920"
     inkscape:window-height="1017"
     inkscape:window-x="-8"
     inkscape:window-y="-8"
     inkscape:window-maximized="1"
     inkscape:current-layer="layer1" /><defs
     id="defs1" /><g
     inkscape:label="Camada 1"
     inkscape:groupmode="layer"
     id="layer1"
     transform="translate(1070.5492,-748.2393)"><rect
       style="fill:#ffffff;fill-opacity:0;stroke:none;stroke-width:0.49772;stroke-miterlimit:22.4;stroke-dasharray:none;stroke-opacity:1;paint-order:markers stroke fill"
       id="rect43-5"
       width="97.734268"
       height="89.002243"
       x="-1070.5492"
       y="748.23926"
       inkscape:export-filename="volleyace ball.svg"
       inkscape:export-xdpi="171.23161"
       inkscape:export-ydpi="171.23161" /><g
       id="g26"
       style="fill:#1a32ac;fill-opacity:1"
       transform="translate(-523.01642,437.16817)"><path
         id="path1-8-8-1"
         style="fill:#1a32ac;fill-opacity:1;stroke-width:1.156;stroke-miterlimit:22.4;paint-order:markers stroke fill"
         d="m -488.17544,317.70614 c 9.63666,13.39078 2.17402,33.79443 -4.64882,42.32765 8.55058,-0.37772 27.28023,-3.63733 27.99054,-22.92935 -4.83295,-9.34735 -13.25548,-16.39861 -23.34172,-19.3983 z m -26.31933,1.5968 a 38.707672,38.707672 0 0 0 -19.14353,18.01027 c 5.8655,-5.49844 18.1152,-1.13765 26.50122,5.72007 0.67342,-5.7774 -0.56902,-18.21721 -7.35769,-23.73034 z m -11.08563,38.03954 c -2.6882,0.0295 -7.07936,0.79041 -10.49703,5.13457 1.23168,7.73891 5.9859,16.45148 10.99726,21.56147 -8.30838,-12.87725 -1.76221,-24.67662 1.8588,-26.55083 -0.26682,-0.021 -1.13712,-0.15862 -2.35903,-0.14521 z m 64.32631,4.66225 c -8.72219,24.92668 -36.85652,20.51528 -47.92214,12.81162 0.0735,3.57426 2.18822,10.1232 7.65586,14.38155 -2.89,1.04956 -7.54757,1.67429 -12.52223,1.49758 21.53081,8.59972 48.00897,-3.57865 52.78851,-28.69075 z" /></g></g></svg>
